<?xml version="1.0" encoding="UTF-8" standalone="no"?>
<!-- Created with Inkscape (http://www.inkscape.org/) -->

<svg
   version="1.1"
   id="svg1"
   width="344"
   height="183"
   viewBox="0 0 344 183"
   sodipodi:docname="General-Precision-Logo.svg"
   inkscape:version="1.3.2 (091e20e, 2023-11-25, custom)"
   xmlns:inkscape="http://www.inkscape.org/namespaces/inkscape"
   xmlns:sodipodi="http://sodipodi.sourceforge.net/DTD/sodipodi-0.dtd"
   xmlns="http://www.w3.org/2000/svg"
   xmlns:svg="http://www.w3.org/2000/svg">
  <defs
     id="defs1" />
  <sodipodi:namedview
     id="namedview1"
     pagecolor="#ffffff"
     bordercolor="#666666"
     borderopacity="1.0"
     inkscape:showpageshadow="2"
     inkscape:pageopacity="0.0"
     inkscape:pagecheckerboard="0"
     inkscape:deskcolor="#d1d1d1"
     inkscape:zoom="3.3135353"
     inkscape:cx="172.02171"
     inkscape:cy="94.61194"
     inkscape:window-width="1920"
     inkscape:window-height="1057"
     inkscape:window-x="-8"
     inkscape:window-y="-8"
     inkscape:window-maximized="1"
     inkscape:current-layer="g1" />
  <g
     inkscape:groupmode="layer"
     inkscape:label="Image"
     id="g1">
    <path
       style="fill:#000000"
       d="M 146.5,145.29448 C 121.56566,142.99236 94.728311,134.16035 80.73514,123.65166 L 74.97028,119.32232 69.999884,112.91116 65.029487,106.5 63.514743,102.07186 62,97.643722 v -5.66531 -5.665311 l 2.016908,-5.862246 2.016909,-5.862246 4.233091,-5.021661 C 85.826919,51.108311 109.69775,40.110441 146.5,34.444509 l 11,-1.266718 18.5,-0.552295 c 18.40933,-0.549588 34.76553,1.534358 35.9973,1.787474 L 223.51816,36.566997 192.2473,35.609795 172.9268,36.35979 161,37.418521 c -24.32095,2.158949 -41.38213,8.328081 -55,15.195408 l -8.5,4.286449 -6.759702,5.579807 -6.759702,5.579808 -3.551926,5.349587 -3.551926,5.349587 -1.438372,4.779347 c -0.791105,2.628641 -1.413229,6.620329 -1.382499,8.870417 l 0.05587,4.091069 1.780703,4.38967 1.780703,4.38966 4.622585,5.24306 4.622586,5.24306 6.809369,4.48604 c 3.745153,2.46731 9.553921,5.87148 12.908381,7.5648 l 6.09901,3.07877 8.88246,2.41427 c 18.15169,4.93365 29.97108,6.6925 47.88246,7.12542 l 13,0.31421 9.5,-0.86301 c 14.03236,-1.27475 26.16938,-3.62657 38.23062,-7.40805 l 10.73061,-3.36429 8.25955,-4.16477 8.25956,-4.16476 4.97598,-4.14204 c 2.73679,-2.27812 6.21213,-5.49204 7.72297,-7.14204 l 2.747,-3 1.53686,-4.42814 L 276,97.643722 v -4.756761 c 0,-14.092541 -13.58285,-25.923889 -39.5,-34.4065 l -10,-3.272972 -9,-1.100928 -9,-1.100927 -14.65063,-0.0028 L 179.19875,53 167.84937,54.980259 c -13.50956,2.357172 -18.11072,3.723506 -27.16838,8.067758 l -6.819,3.270548 -4.69328,4.219662 -4.69328,4.219662 -2.35574,4.716899 -2.35573,4.716899 0.4552,4.737326 0.45519,4.737327 3.05153,4.41683 3.05152,4.41683 6.90492,3.70895 6.90491,3.70895 5.91649,1.54105 C 149.75778,112.30653 153.22565,113 154.2101,113 L 156,113.2134 V 98.5 84 h 7.92054 8.34735 c 0.54038,27.05768 0.12534,38.82805 0.14682,39.28586 l -10.3025,-0.63321 c -21.33235,-1.31112 -41.37809,-7.67914 -50.73374,-15.89351 l -3.69538,-3.24458 -2.33177,-5.007281 -2.33177,-5.007279 0.0122,-5.5 0.0122,-5.5 1.97395,-4.350069 1.97395,-4.350068 5.8183,-5.649932 5.8183,-5.649931 7.43579,-3.647605 c 36.07305,-17.69553 103.1558,-16.331424 140.10593,2.849009 l 6.67014,3.462401 5.91761,6.168097 5.91762,6.168098 2.16225,5.787513 L 289,89.075025 v 4.284349 4.284348 l -1.51432,4.444288 -1.51432,4.44429 -4.50194,5.73593 -4.50193,5.73593 -4.73375,3.45966 C 256.90755,132.66498 232.37018,141.29525 206.5,144.58367 l -11,1.39823 c 0,0 -15,0.74758 -22.5,0.69455 -12.375,-0.0875 -24.3,-1.17885 -26.5,-1.38197 z m 31.59609,-83.585855 c 0,0 9.93867,0.390969 14.90607,0.629377 3.90284,0.187315 7.83575,0.08575 11.70508,0.629377 3.18219,0.447086 6.26425,1.009883 9.39638,1.728224 3.13213,0.718341 6.36429,1.517549 9.39638,2.581823 1.99281,0.699485 5.70611,2.754185 5.70611,2.754185 7.36415,3.554478 10.65215,6.176146 14.04389,11.197815 0,0 2.27068,2.505504 2.75,4.071539 0.47699,1.558423 0.6402,3.259572 0.6402,4.889358 0,0 -0.25933,3.304699 -0.6402,4.889357 -0.33691,1.401787 -1.53871,4.066116 -1.53871,4.066116 0,0 -1.50009,2.506854 -2.39231,3.639314 -1.08844,1.3815 -4.00839,3.43103 -4.00839,3.43103 -8.19065,7.01089 -24.44052,14.08802 -37.83303,15.3628 l -7.19305,0.68468 c 0,0 -0.15259,8.87511 -0.53451,13.23638 l -7.2201,0.29321 -7.43351,0.2932 z M 203,111.92137 c 3.025,-0.65349 8.2,-2.39941 11.5,-3.87982 l 6,-2.69166 3.33712,-3.33899 c 3.81473,-3.816861 5.16448,-6.780002 5.15914,-11.326 l -0.004,-3.1849 -1.96317,-3.219757 c -1.07974,-1.770867 -3.77572,-4.532762 -5.99106,-6.137545 l -4.02789,-2.917787 -6.32149,-1.711149 c -3.47682,-0.941132 -8.76666,-1.779237 -11.7552,-1.862455 L 193.5,71.5 c 0,0 -0.18126,13.314527 -0.27188,19.97179 -0.28836,21.18306 -0.0775,19.24527 -0.4178,21.51936 l 2.87817,0.0592 c 1.01624,0.0209 4.28617,-0.47548 7.31117,-1.12897 z"
       id="path3"
       sodipodi:nodetypes="sscccccccccsscsscccsscccccsscccccsscsscsscccsscccsscccccsscccccccccccssccccccsscccccccccsscccccccccccsscsscssssssssscssscccccsscsccsscsscscsss"
       inkscape:export-filename="General-Precision-Logo-BW.png"
       inkscape:export-xdpi="75"
       inkscape:export-ydpi="75" />
  </g>
</svg>
