<?xml version="1.0" encoding="UTF-8" standalone="no"?>
<!-- Created with Inkscape (http://www.inkscape.org/) -->

<svg
   width="210mm"
   height="297mm"
   viewBox="0 0 210 297"
   version="1.1"
   id="svg1"
   inkscape:version="1.3.2 (091e20e, 2023-11-25, custom)"
   sodipodi:docname="LGP-21-Logo.svg"
   xmlns:inkscape="http://www.inkscape.org/namespaces/inkscape"
   xmlns:sodipodi="http://sodipodi.sourceforge.net/DTD/sodipodi-0.dtd"
   xmlns="http://www.w3.org/2000/svg"
   xmlns:svg="http://www.w3.org/2000/svg">
  <sodipodi:namedview
     id="namedview1"
     pagecolor="#ffffff"
     bordercolor="#666666"
     borderopacity="1.0"
     inkscape:showpageshadow="2"
     inkscape:pageopacity="0.0"
     inkscape:pagecheckerboard="0"
     inkscape:deskcolor="#d1d1d1"
     inkscape:document-units="mm"
     inkscape:zoom="0.76702441"
     inkscape:cx="396.3368"
     inkscape:cy="559.9561"
     inkscape:window-width="1920"
     inkscape:window-height="1057"
     inkscape:window-x="-8"
     inkscape:window-y="-8"
     inkscape:window-maximized="1"
     inkscape:current-layer="layer1"
     showgrid="false" />
  <defs
     id="defs1" />
  <g
     inkscape:label="Layer 1"
     inkscape:groupmode="layer"
     id="layer1">
    <text
       xml:space="preserve"
       style="font-style:normal;font-variant:normal;font-weight:normal;font-stretch:normal;font-size:23.1077px;line-height:1.25;font-family:'Microgramma D Extended';-inkscape-font-specification:'Microgramma D Extended, Normal';font-variant-ligatures:normal;font-variant-caps:normal;font-variant-numeric:normal;font-variant-east-asian:normal;text-align:end;letter-spacing:0px;word-spacing:0px;text-anchor:end;stroke-width:0.288846"
       x="202.38274"
       y="67.888969"
       id="text1"
       inkscape:export-filename="resources\LGP-21-Logo.png"
       inkscape:export-xdpi="96"
       inkscape:export-ydpi="96"><tspan
         sodipodi:role="line"
         id="tspan1"
         style="font-style:normal;font-variant:normal;font-weight:normal;font-stretch:normal;font-size:23.1077px;font-family:'Microgramma D Extended';-inkscape-font-specification:'Microgramma D Extended, Normal';font-variant-ligatures:normal;font-variant-caps:normal;font-variant-numeric:normal;font-variant-east-asian:normal;stroke-width:0.288846"
         x="202.38274"
         y="67.888969">L G P - 2 1</tspan></text>
    <circle
       style="fill:#55ddee;stroke:#ffffff;stroke-width:0.459934;stroke-linecap:round;stroke-miterlimit:0;paint-order:stroke fill markers;fill-opacity:1"
       id="path2"
       cx="30.398098"
       cy="60.182552"
       r="15.645034"
       inkscape:export-filename="General-Precision-Logo-Turquoise.png"
       inkscape:export-xdpi="74.867"
       inkscape:export-ydpi="74.867" />
    <path
       style="fill:#ffffff;fill-opacity:1;stroke-width:0.114984"
       d="m 27.063581,66.585783 c -2.867044,-0.264709 -5.952903,-1.280246 -7.56189,-2.488573 l -0.662865,-0.497803 -0.571515,-0.737181 -0.571515,-0.737181 -0.174171,-0.509163 -0.174171,-0.509163 v -0.65142 -0.651416 l 0.231912,-0.674062 0.231912,-0.674066 0.486737,-0.577411 c 1.789148,-2.12244 4.533906,-3.387019 8.765566,-4.038509 l 1.264821,-0.14565 2.1272,-0.06351 c 2.116774,-0.06319 3.997475,0.176428 4.139106,0.205532 l 1.324712,0.247678 -3.595643,-0.110063 -2.221543,0.08623 -1.371388,0.12174 c -2.796514,0.248243 -4.758273,0.957594 -6.324107,1.747224 l -0.977361,0.492871 -0.777257,0.64159 -0.777255,0.641585 -0.408414,0.615115 -0.408414,0.615115 -0.165389,0.549549 c -0.09096,0.302249 -0.162499,0.761231 -0.158965,1.019952 l 0.0064,0.470407 0.204752,0.504739 0.204751,0.504744 0.531522,0.602864 0.531523,0.602868 0.782967,0.515821 c 0.430631,0.283701 1.098545,0.675127 1.484254,0.869829 l 0.701287,0.354008 1.021339,0.277604 c 2.087149,0.567289 3.446187,0.769527 5.505704,0.819305 l 1.494789,0.03611 1.092345,-0.09923 c 1.613498,-0.146576 3.009057,-0.416996 4.395902,-0.851806 l 1.233846,-0.386837 0.949714,-0.478881 0.949714,-0.478882 0.572161,-0.476265 c 0.314682,-0.261946 0.714291,-0.631494 0.888012,-0.821221 l 0.315864,-0.344951 0.176711,-0.509163 0.176715,-0.509164 v -0.54695 c 0,-1.620413 -1.561809,-2.980826 -4.541857,-3.956186 l -1.149841,-0.376341 -1.034854,-0.12659 -1.034853,-0.126586 -1.684586,-3.21e-4 -1.684583,-3.26e-4 -1.304995,0.227696 c -1.553379,0.271037 -2.082438,0.428144 -3.123922,0.927659 l -0.784074,0.376063 -0.539651,0.485192 -0.539651,0.485191 -0.270872,0.542366 -0.27087,0.54237 0.05234,0.544712 0.05234,0.544717 0.350876,0.507864 0.350876,0.507863 0.793953,0.426471 0.793952,0.426466 0.680301,0.177198 c 0.374164,0.09746 0.772913,0.177197 0.886108,0.177197 l 0.205809,0.02455 V 61.205165 59.5379 h 0.910734 0.95981 c 0.06214,3.111193 0.01441,4.464593 0.01688,4.517234 l -1.18462,-0.07281 c -2.452874,-0.150757 -4.757808,-0.88298 -5.833556,-1.827496 l -0.424908,-0.373073 -0.268116,-0.575759 -0.268115,-0.575755 0.0014,-0.632411 0.0014,-0.632412 0.226972,-0.500184 0.226973,-0.50019 0.669009,-0.649647 0.66901,-0.649651 0.854995,-0.419417 c 4.147815,-2.034698 11.861244,-1.877847 16.109909,0.327589 l 0.766959,0.398123 0.680429,0.709229 0.680428,0.709232 0.248626,0.665471 0.248617,0.66547 v 0.492627 0.492632 l -0.174121,0.511023 -0.174125,0.511019 -0.51765,0.659538 -0.517647,0.659538 -0.544303,0.397806 c -1.762266,1.287951 -4.583665,2.280294 -7.558312,2.658408 l -1.264825,0.160772 c 0,0 -1.724757,0.08596 -2.587135,0.07986 -1.422924,-0.01004 -2.794105,-0.135545 -3.047069,-0.1589 z m 3.633037,-9.611017 c 0,0 1.142786,0.04496 1.713956,0.07237 0.448763,0.02155 0.900984,0.0099 1.345894,0.07237 0.365903,0.05141 0.720289,0.116121 1.080433,0.198718 0.360145,0.0826 0.731792,0.174494 1.080433,0.296869 0.229139,0.08043 0.65611,0.316686 0.65611,0.316686 0.846757,0.408704 1.224823,0.710154 1.614819,1.287564 0,0 0.26109,0.288095 0.316204,0.46816 0.05484,0.179197 0.07361,0.374799 0.07361,0.5622 0,0 -0.02981,0.379983 -0.07361,0.562196 -0.03872,0.161183 -0.176928,0.467534 -0.176928,0.467534 0,0 -0.172487,0.288251 -0.275075,0.418466 -0.125151,0.158849 -0.460898,0.394511 -0.460898,0.394511 -0.941792,0.806136 -2.810265,1.619895 -4.350188,1.766472 l -0.827084,0.07873 c 0,0 -0.01754,1.020491 -0.06146,1.521967 l -0.830194,0.03372 -0.854733,0.03372 z m 2.863545,5.773651 c 0.347828,-0.07514 0.942869,-0.275895 1.322318,-0.446118 l 0.689902,-0.309498 0.383712,-0.383929 c 0.438634,-0.438873 0.593833,-0.779587 0.593216,-1.302305 l -4.35e-4,-0.366212 -0.225731,-0.370218 c -0.124152,-0.20362 -0.434146,-0.521196 -0.688873,-0.705717 l -0.463145,-0.335499 -0.726868,-0.196753 c -0.399774,-0.108216 -1.008024,-0.204585 -1.351658,-0.214155 l -0.624758,-0.01738 c 0,0 -0.02084,1.530953 -0.03126,2.29643 -0.03316,2.43571 -0.0089,2.212894 -0.04804,2.474375 l 0.330942,0.0068 c 0.116851,0.0026 0.49284,-0.05468 0.840666,-0.129815 z"
       id="path3"
       sodipodi:nodetypes="sscccccccccsscsscccsscccccsscccccsscsscsscccsscccsscccccsscccccccccccssccccccsscccccccccsscccccccccccsscsscssssssssscssscccccsscsccsscsscscsss"
       inkscape:export-filename="General-Precision-Logo-BW.png"
       inkscape:export-xdpi="75"
       inkscape:export-ydpi="75" />
    <rect
       style="fill:#00d0e0;fill-opacity:1;stroke:#ffffff;stroke-width:1.05833;stroke-linecap:round;stroke-miterlimit:0;paint-order:stroke fill markers"
       id="rect2"
       width="73.128914"
       height="31.0453"
       x="21.386759"
       y="87.96167" />
    <rect
       style="fill:#dacfbe;fill-opacity:1;stroke:#ffffff;stroke-width:1.05833;stroke-linecap:round;stroke-miterlimit:0;paint-order:stroke fill markers"
       id="rect3"
       width="73.128914"
       height="31.0453"
       x="21.386759"
       y="87.96167" />
    <rect
       style="fill:#666666;fill-opacity:1;stroke:#ffffff;stroke-width:1.05833;stroke-linecap:round;stroke-miterlimit:0;paint-order:stroke fill markers"
       id="rect4"
       width="73.128914"
       height="31.0453"
       x="20.696863"
       y="129.70035" />
    <g
       id="text4"
       style="font-weight:bold;font-size:8.1002px;line-height:1.25;font-family:Arial;-inkscape-font-specification:'Arial, Bold';letter-spacing:0px;word-spacing:0px;fill:#6699cc;stroke-width:0.243006"
       aria-label="G E N E R A L   P R E C I S I O N     L G P - 2 1"
       transform="matrix(1.1052701,0,0,1,-1.0459552,0)"
       inkscape:export-filename="GP-LGP-21-LogoType.png"
       inkscape:export-xdpi="74.867"
       inkscape:export-ydpi="74.867">
      <path
         d="m 12.835061,182.23652 v -0.97693 h 2.523402 v 2.30983 q -0.367831,0.35596 -1.067897,0.62887 -0.696111,0.26895 -1.411998,0.26895 -0.90969,0 -1.586025,-0.3797 -0.676335,-0.38365 -1.01648,-1.09162 -0.3401455,-0.71194 -0.3401455,-1.54648 0,-0.90573 0.3796965,-1.60975 0.379697,-0.70402 1.111405,-1.07977 0.557679,-0.28872 1.388266,-0.28872 1.079763,0 1.684905,0.45484 0.609097,0.45089 0.783125,1.24984 l -1.162822,0.21753 q -0.12261,-0.42716 -0.462755,-0.67238 -0.33619,-0.24918 -0.842453,-0.24918 -0.767304,0 -1.222149,0.48649 -0.45089,0.48649 -0.45089,1.44364 0,1.0323 0.4588,1.55043 0.458801,0.51417 1.202374,0.51417 0.367831,0 0.735662,-0.14238 0.371787,-0.14635 0.636784,-0.35201 v -0.73567 z m 5.853661,2.13184 v -5.79829 h 4.299276 v 0.98089 h -3.128544 v 1.28543 h 2.911009 v 0.97693 h -2.911009 v 1.57811 h 3.239289 v 0.97693 z m 7.66513,0 v -5.79829 h 1.139091 l 2.373105,3.87212 v -3.87212 h 1.087673 v 5.79829 h -1.174687 l -2.337508,-3.78115 v 3.78115 z m 8.088333,0 v -5.79829 h 4.299276 v 0.98089 h -3.128544 v 1.28543 h 2.91101 v 0.97693 h -2.91101 v 1.57811 h 3.239289 v 0.97693 z m 7.657221,0 v -5.79829 h 2.464074 q 0.929466,0 1.348715,0.15821 0.423204,0.15425 0.676335,0.55373 0.253131,0.39947 0.253131,0.91364 0,0.65261 -0.383652,1.07977 -0.383652,0.4232 -1.147001,0.53394 0.379697,0.22149 0.624918,0.48649 0.249176,0.265 0.668425,0.94133 l 0.707976,1.13118 h -1.400132 l -0.846408,-1.2617 q -0.45089,-0.67633 -0.617007,-0.85036 -0.166117,-0.17798 -0.352011,-0.24127 -0.185893,-0.0672 -0.589321,-0.0672 h -0.23731 v 2.42057 z m 1.170732,-3.34608 h 0.866183 q 0.842452,0 1.052077,-0.0712 0.209624,-0.0712 0.328279,-0.24522 0.118656,-0.17403 0.118656,-0.43507 0,-0.29268 -0.158207,-0.47067 -0.154252,-0.18193 -0.439025,-0.2294 -0.142386,-0.0198 -0.854318,-0.0198 h -0.913645 z m 11.853663,3.34608 h -1.273567 l -0.506262,-1.31707 h -2.317733 l -0.478576,1.31707 h -1.241926 l 2.258406,-5.79829 h 1.23797 z m -2.155571,-2.294 -0.798945,-2.15161 -0.783125,2.15161 z m 4.758076,2.294 v -5.75082 h 1.170732 v 4.77389 h 2.91101 v 0.97693 z m 11.521425,0 v -5.79829 h 1.878709 q 1.067897,0 1.392221,0.087 0.498353,0.13052 0.834543,0.56954 0.336189,0.43507 0.336189,1.12723 0,0.53395 -0.193803,0.89782 -0.193804,0.36388 -0.494397,0.5735 -0.296638,0.20567 -0.605142,0.27291 -0.419249,0.0831 -1.214239,0.0831 h -0.763349 v 2.18721 z m 1.170732,-4.8174 v 1.64535 h 0.640739 q 0.692155,0 0.925511,-0.091 0.233355,-0.091 0.363876,-0.28477 0.134476,-0.1938 0.134476,-0.45089 0,-0.31641 -0.185893,-0.52208 -0.185894,-0.20567 -0.470666,-0.25709 -0.209625,-0.0395 -0.842453,-0.0395 z m 6.340143,4.8174 v -5.79829 h 2.464075 q 0.929466,0 1.348715,0.15821 0.423203,0.15425 0.676335,0.55373 0.253131,0.39947 0.253131,0.91364 0,0.65261 -0.383652,1.07977 -0.383652,0.4232 -1.147001,0.53394 0.379697,0.22149 0.624918,0.48649 0.249176,0.265 0.668424,0.94133 l 0.707977,1.13118 h -1.400132 l -0.846408,-1.2617 q -0.45089,-0.67633 -0.617007,-0.85036 -0.166118,-0.17798 -0.352011,-0.24127 -0.185893,-0.0672 -0.589321,-0.0672 h -0.237311 v 2.42057 z m 1.170732,-3.34608 h 0.866184 q 0.842452,0 1.052076,-0.0712 0.209625,-0.0712 0.32828,-0.24522 0.118655,-0.17403 0.118655,-0.43507 0,-0.29268 -0.158207,-0.47067 -0.154252,-0.18193 -0.439024,-0.2294 -0.142387,-0.0198 -0.854318,-0.0198 h -0.913646 z m 6.925518,3.34608 v -5.79829 h 4.299275 v 0.98089 h -3.128543 v 1.28543 h 2.911009 v 0.97693 h -2.911009 v 1.57811 h 3.239288 v 0.97693 z m 11.363221,-2.13184 1.135136,0.35992 q -0.261042,0.94925 -0.870139,1.412 -0.605142,0.4588 -1.538563,0.4588 -1.154912,0 -1.898485,-0.78708 -0.743573,-0.79103 -0.743573,-2.15952 0,-1.4476 0.747529,-2.24654 0.747528,-0.8029 1.965722,-0.8029 1.063942,0 1.728412,0.62887 0.395517,0.37178 0.593276,1.0679 l -1.158867,0.27686 q -0.102834,-0.45089 -0.431114,-0.71193 -0.324324,-0.26105 -0.791035,-0.26105 -0.644693,0 -1.048121,0.46276 -0.399473,0.46276 -0.399473,1.49901 0,1.09954 0.395517,1.56625 0.395518,0.46671 1.028346,0.46671 0.466711,0 0.802901,-0.29664 0.33619,-0.29663 0.482531,-0.93342 z m 4.354643,2.13184 v -5.79829 h 1.17073 v 5.79829 z m 4.23995,-1.88662 1.13909,-0.11074 q 0.10284,0.5735 0.4153,0.84245 0.31641,0.26895 0.85036,0.26895 0.56559,0 0.85036,-0.23731 0.28873,-0.24126 0.28873,-0.56163 0,-0.20567 -0.12261,-0.34806 -0.11866,-0.14634 -0.41925,-0.25313 -0.20567,-0.0712 -0.93738,-0.25313 -0.94133,-0.23336 -1.32102,-0.5735 -0.53395,-0.47858 -0.53395,-1.16678 0,-0.44298 0.24917,-0.82663 0.25313,-0.38761 0.7238,-0.58932 0.47462,-0.20171 1.14305,-0.20171 1.09162,0 1.64139,0.47857 0.55373,0.47858 0.58141,1.27752 l -1.17073,0.0514 q -0.0751,-0.44693 -0.32432,-0.64074 -0.24522,-0.19776 -0.73962,-0.19776 -0.51022,0 -0.79894,0.20963 -0.1859,0.13447 -0.1859,0.35992 0,0.20567 0.17403,0.35201 0.22149,0.18589 1.07581,0.38761 0.85432,0.20171 1.2617,0.41925 0.41134,0.21357 0.64074,0.58932 0.23335,0.37178 0.23335,0.92155 0,0.49835 -0.27686,0.93342 -0.27686,0.43507 -0.78312,0.64865 -0.50627,0.20963 -1.26171,0.20963 -1.09953,0 -1.68886,-0.50627 -0.58932,-0.51021 -0.70402,-1.48319 z m 7.9143,1.88662 v -5.79829 h 1.17074 v 5.79829 z m 4.29928,-2.86354 q 0,-0.88596 0.265,-1.48715 0.19776,-0.44298 0.5379,-0.79499 0.3441,-0.35201 0.75149,-0.52208 0.54185,-0.2294 1.24983,-0.2294 1.28148,0 2.04878,0.79499 0.77126,0.79499 0.77126,2.21094 0,1.40409 -0.76335,2.19908 -0.76335,0.79103 -2.04087,0.79103 -1.29334,0 -2.05669,-0.78708 -0.76335,-0.79103 -0.76335,-2.17534 z m 1.20633,-0.0396 q 0,0.98484 0.45485,1.49506 0.45484,0.50626 1.15491,0.50626 0.70006,0 1.147,-0.5023 0.45089,-0.50627 0.45089,-1.51484 0,-0.9967 -0.43903,-1.48714 -0.43507,-0.49045 -1.15886,-0.49045 -0.7238,0 -1.16678,0.49836 -0.44298,0.49439 -0.44298,1.49505 z m 7.59394,2.9031 v -5.79829 h 1.13909 l 2.37311,3.87212 v -3.87212 h 1.08767 v 5.79829 h -1.17469 l -2.3375,-3.78115 v 3.78115 z"
         id="path1" />
      <path
         style="fill:#000000"
         d="m 142.94848,184.36836 v -5.75082 h 1.17073 v 4.77389 h 2.91101 v 0.97693 z m 9.71786,-2.13184 v -0.97693 h 2.52341 v 2.30983 q -0.36783,0.35596 -1.0679,0.62887 -0.69611,0.26895 -1.412,0.26895 -0.90969,0 -1.58602,-0.3797 -0.67634,-0.38365 -1.01648,-1.09162 -0.34015,-0.71194 -0.34015,-1.54648 0,-0.90573 0.3797,-1.60975 0.37969,-0.70402 1.1114,-1.07977 0.55768,-0.28872 1.38827,-0.28872 1.07976,0 1.6849,0.45484 0.6091,0.45089 0.78313,1.24984 l -1.16282,0.21753 q -0.12261,-0.42716 -0.46276,-0.67238 -0.33619,-0.24918 -0.84245,-0.24918 -0.76731,0 -1.22215,0.48649 -0.45089,0.48649 -0.45089,1.44364 0,1.0323 0.4588,1.55043 0.4588,0.51417 1.20237,0.51417 0.36783,0 0.73567,-0.14238 0.37178,-0.14635 0.63678,-0.35201 v -0.73567 z m 5.85366,2.13184 v -5.79829 h 1.87871 q 1.0679,0 1.39222,0.087 0.49835,0.13052 0.83454,0.56954 0.33619,0.43507 0.33619,1.12723 0,0.53395 -0.1938,0.89782 -0.1938,0.36388 -0.4944,0.5735 -0.29664,0.20567 -0.60514,0.27291 -0.41925,0.0831 -1.21424,0.0831 h -0.76335 v 2.18721 z m 1.17073,-4.8174 v 1.64535 h 0.64074 q 0.69216,0 0.92551,-0.091 0.23336,-0.091 0.36388,-0.28477 0.13448,-0.1938 0.13448,-0.45089 0,-0.31641 -0.1859,-0.52208 -0.18589,-0.20567 -0.47066,-0.25709 -0.20963,-0.0395 -0.84246,-0.0395 z m 6.20172,3.27093 v -1.11141 h 2.18326 v 1.11141 z m 8.59064,0.51417 v 1.0323 h -3.89585 q 0.0633,-0.58536 0.3797,-1.10745 0.31641,-0.52604 1.24984,-1.39222 0.75148,-0.70006 0.92155,-0.94924 0.2294,-0.3441 0.2294,-0.68029 0,-0.37179 -0.20171,-0.56955 -0.19776,-0.20171 -0.54977,-0.20171 -0.34806,0 -0.55373,0.20962 -0.20567,0.20963 -0.23731,0.69612 l -1.10745,-0.11075 q 0.0989,-0.9176 0.62097,-1.31707 0.52208,-0.39948 1.3052,-0.39948 0.85828,0 1.34872,0.46276 0.49044,0.46275 0.49044,1.15096 0,0.39156 -0.14238,0.74752 -0.13844,0.35201 -0.44298,0.73962 -0.20172,0.25709 -0.72776,0.73962 -0.52604,0.48253 -0.66842,0.64074 -0.13843,0.1582 -0.22545,0.3085 z m 5.84574,1.0323 h -1.1114 v -4.18853 q -0.6091,0.56955 -1.43573,0.84245 v -1.00857 q 0.43507,-0.14238 0.94529,-0.5379 0.51021,-0.39947 0.70006,-0.92947 h 0.90178 z"
         id="path4" />
    </g>
    <path
       style="fill:#6699cc;fill-opacity:1;stroke-width:0.105128"
       d="m 37.959013,207.24798 c -2.621303,-0.24202 -5.442666,-1.1705 -6.913743,-2.27527 l -0.60605,-0.45513 -0.522529,-0.67399 -0.522529,-0.67401 -0.159243,-0.46552 -0.159242,-0.46551 v -0.59559 -0.59558 l 0.212034,-0.61629 0.212035,-0.61629 0.445017,-0.52792 c 1.635797,-1.94052 4.145295,-3.09671 8.01425,-3.69236 l 1.156411,-0.13317 1.944873,-0.0581 c 1.93534,-0.0578 3.654842,0.16131 3.784334,0.18793 l 1.211168,0.22644 -3.287453,-0.10063 -2.031129,0.0788 -1.253844,0.11131 c -2.556818,0.22696 -4.350431,0.87552 -5.782053,1.59747 l -0.89359,0.45062 -0.710636,0.5866 -0.710635,0.58659 -0.373408,0.5624 -0.373408,0.56239 -0.151213,0.50244 c -0.08316,0.27635 -0.148571,0.69599 -0.14534,0.93253 l 0.0059,0.43009 0.187202,0.46148 0.187201,0.46148 0.485964,0.55119 0.485965,0.55119 0.715857,0.47162 c 0.393721,0.25938 1.004387,0.61725 1.357036,0.79526 l 0.641178,0.32367 0.933798,0.25382 c 1.908255,0.51866 3.150806,0.70356 5.033798,0.74907 l 1.366667,0.033 0.998718,-0.0907 c 1.475201,-0.13401 2.751144,-0.38125 4.019119,-0.77879 l 1.128091,-0.35368 0.868312,-0.43784 0.868311,-0.43783 0.52312,-0.43545 c 0.28771,-0.2395 0.653068,-0.57736 0.811899,-0.75083 l 0.28879,-0.31538 0.161565,-0.46552 0.161568,-0.46553 v -0.50007 c 0,-1.48152 -1.427942,-2.72533 -4.152564,-3.61709 l -1.051286,-0.34409 -0.946154,-0.11574 -0.946153,-0.11573 -1.540197,-2.9e-4 -1.540193,-3e-4 -1.193142,0.20818 c -1.420235,0.2478 -1.903947,0.39144 -2.856163,0.84815 l -0.71687,0.34382 -0.493396,0.44361 -0.493396,0.4436 -0.247655,0.49588 -0.247653,0.49588 0.04785,0.49803 0.04785,0.49803 0.320802,0.46433 0.320802,0.46433 0.725901,0.38992 0.725901,0.38991 0.621991,0.16201 c 0.342093,0.0892 0.706665,0.16201 0.810157,0.16201 l 0.188169,0.0225 v -1.54681 -1.52435 h 0.832673 0.877543 c 0.05681,2.84452 0.01318,4.08192 0.01543,4.13005 l -1.083084,-0.0666 c -2.242633,-0.13783 -4.350006,-0.8073 -5.333549,-1.67085 l -0.388488,-0.34111 -0.245135,-0.5264 -0.245134,-0.52641 0.0013,-0.5782 0.0013,-0.57821 0.207517,-0.45732 0.207519,-0.45731 0.611667,-0.59396 0.611667,-0.59397 0.781712,-0.38347 c 3.792296,-1.8603 10.84459,-1.71689 14.729093,0.29951 l 0.701221,0.364 0.622108,0.64844 0.622107,0.64844 0.227316,0.60843 0.227307,0.60843 v 0.45041 0.4504 l -0.159196,0.46722 -0.159201,0.46722 -0.473281,0.60301 -0.473278,0.60301 -0.49765,0.36371 c -1.611218,1.17756 -4.190789,2.08484 -6.910472,2.43055 l -1.156414,0.14699 c 0,0 -1.576924,0.0786 -2.365386,0.0731 -1.300962,-0.009 -2.554616,-0.12394 -2.785898,-0.14528 z m 3.321642,-8.78723 c 0,0 1.044835,0.0412 1.567049,0.0662 0.410298,0.0197 0.823758,0.009 1.230534,0.0662 0.334541,0.047 0.658552,0.10617 0.987827,0.18168 0.329276,0.0755 0.669068,0.15954 0.987827,0.27143 0.209499,0.0735 0.599873,0.28954 0.599873,0.28954 0.77418,0.37367 1.119841,0.64928 1.476409,1.1772 0,0 0.238712,0.26341 0.289102,0.42804 0.05014,0.16384 0.0673,0.34267 0.0673,0.51401 0,0 -0.02725,0.34742 -0.0673,0.51401 -0.0354,0.14737 -0.161763,0.42746 -0.161763,0.42746 0,0 -0.157703,0.26354 -0.251498,0.3826 -0.114424,0.14523 -0.421393,0.3607 -0.421393,0.3607 -0.861069,0.73704 -2.569391,1.48104 -3.977324,1.61506 l -0.756193,0.0719 c 0,0 -0.01604,0.93302 -0.05619,1.39152 l -0.759036,0.0308 -0.781472,0.0308 z m 2.618104,5.27878 c 0.318015,-0.0687 0.862054,-0.25225 1.208979,-0.40788 l 0.630769,-0.28297 0.350823,-0.35102 c 0.401038,-0.40126 0.542935,-0.71277 0.542371,-1.19068 l -3.98e-4,-0.33483 -0.206383,-0.33848 c -0.113511,-0.18617 -0.396935,-0.47653 -0.629828,-0.64523 l -0.423448,-0.30674 -0.664567,-0.17989 c -0.365508,-0.099 -0.921624,-0.18706 -1.235804,-0.1958 l -0.571209,-0.0159 c 0,0 -0.01905,1.39973 -0.02858,2.09959 -0.03032,2.22694 -0.0081,2.02323 -0.04392,2.2623 l 0.302576,0.006 c 0.106836,0.003 0.450598,-0.05 0.768611,-0.11869 z"
       id="path6"
       sodipodi:nodetypes="sscccccccccsscsscccsscccccsscccccsscsscsscccsscccsscccccsscccccccccccssccccccsscccccccccsscccccccccccsscsscssssssssscssscccccsscsccsscsscscsss"
       inkscape:export-filename="General-Precision-Logo-Blue.png"
       inkscape:export-xdpi="75"
       inkscape:export-ydpi="75" />
    <rect
       style="fill:#55ddee;fill-opacity:1;stroke:#ffffff;stroke-width:1.05833;stroke-linecap:round;stroke-miterlimit:0;paint-order:stroke fill markers"
       id="rect6"
       width="73.128914"
       height="31.0453"
       x="111.34515"
       y="87.96167" />
  </g>
</svg>
